<?xml version="1.0" standalone="no"?>
<!DOCTYPE svg PUBLIC "-//W3C//DTD SVG 20010904//EN"
 "http://www.w3.org/TR/2001/REC-SVG-20010904/DTD/svg10.dtd">
<svg version="1.0" xmlns="http://www.w3.org/2000/svg"
 width="700.000000pt" height="700.000000pt" viewBox="0 0 700.000000 700.000000"
 preserveAspectRatio="xMidYMid meet">
<metadata>
Created by potrace 1.11, written by Peter Selinger 2001-2013
</metadata>
<g transform="translate(0.000000,700.000000) scale(0.100000,-0.100000)"
fill="#000000" stroke="none">
<path d="M4495 6869 c-499 -56 -972 -287 -1294 -633 -25 -27 -53 -57 -61 -65
-8 -9 -33 -39 -54 -66 -22 -28 -572 -583 -1223 -1235 l-1183 -1185 76 -78 c42
-43 78 -77 80 -75 2 2 425 424 940 938 515 514 934 926 931 915 -33 -115 -52
-210 -72 -350 -20 -136 -7 -505 20 -605 2 -8 7 -29 10 -47 10 -61 53 -212 85
-299 240 -652 777 -1133 1457 -1304 179 -45 316 -59 543 -55 107 2 211 7 230
10 19 4 55 10 80 15 25 5 47 6 49 4 3 -2 -546 -555 -1220 -1229 -673 -674
-1225 -1227 -1227 -1229 -2 -2 31 -39 73 -81 l78 -76 1394 1395 c878 878 1406
1399 1426 1407 18 7 77 39 132 72 409 247 720 620 885 1062 47 126 96 320 114
450 14 99 16 455 2 535 -3 19 -8 53 -12 75 -12 83 -66 284 -101 380 -137 372
-381 702 -698 941 -170 129 -350 226 -552 299 -146 53 -271 83 -458 110 -66
10 -375 12 -450 4z m176 -284 c-8 -134 0 -351 13 -373 2 -4 7 -29 10 -57 4
-27 9 -58 12 -67 3 -9 7 -25 9 -35 19 -78 28 -110 59 -190 62 -163 142 -306
248 -446 33 -43 58 -80 56 -82 -1 -2 -86 -88 -188 -190 l-185 -185 -612 612
c-337 337 -613 618 -613 623 0 11 176 144 255 193 210 130 518 236 750 258 33
3 61 7 62 8 1 1 31 2 65 1 l63 0 -4 -70z m386 39 c233 -47 438 -128 624 -245
87 -54 249 -176 249 -188 0 -11 -678 -686 -690 -686 -19 0 -128 158 -183 264
-92 179 -149 366 -164 539 -10 111 -7 312 4 335 5 9 56 3 160 -19z m-1122
-1203 l616 -615 -78 -79 c-186 -188 -305 -302 -314 -299 -5 1 -38 24 -72 51
-136 106 -322 207 -487 265 -96 33 -216 60 -360 82 -61 9 -275 12 -343 4 l-56
-6 4 71 c16 306 112 615 275 880 50 83 189 267 197 261 2 0 280 -278 618 -615z
m2234 521 c164 -217 273 -439 335 -687 29 -118 36 -152 43 -222 l5 -53 -38 -1
c-225 -8 -340 1 -489 36 -209 50 -442 165 -595 295 l-35 29 347 347 c200 201
351 344 357 340 6 -4 37 -42 70 -84z m-847 -826 c265 -204 556 -321 878 -353
73 -7 267 -9 320 -2 l35 4 0 -75 c-2 -337 -160 -752 -403 -1054 l-55 -68 -618
618 -619 619 187 187 c103 104 189 188 190 188 2 0 40 -29 85 -64z m3 -1085
c597 -597 614 -615 597 -634 -9 -11 -51 -45 -92 -76 -214 -162 -439 -268 -705
-331 -136 -33 -164 -37 -291 -46 l-92 -6 3 148 c3 171 -6 270 -41 427 -51 232
-178 495 -333 687 l-52 64 193 193 c106 106 193 191 195 190 1 -1 279 -278
618 -616z m-2089 575 c16 -3 45 -8 64 -11 148 -24 352 -99 488 -179 94 -56
212 -142 212 -154 0 -9 -676 -686 -689 -690 -12 -4 -143 170 -202 268 -107
179 -200 418 -233 605 -3 17 -8 39 -10 50 -2 11 -6 40 -10 66 l-7 45 43 3 c23
1 44 4 46 5 5 6 266 -1 298 -8z m1004 -596 c198 -273 293 -577 286 -913 -1
-75 -6 -140 -9 -144 -9 -8 -149 12 -232 34 -33 8 -71 17 -84 19 -44 9 -243 86
-324 126 -103 51 -190 105 -292 182 -140 104 -169 47 226 442 189 189 348 344
354 344 5 0 39 -41 75 -90z"/>
<path d="M1257 2865 l-1114 -1114 74 -76 c41 -41 76 -75 79 -75 7 0 2224 2216
2224 2223 0 3 -33 39 -74 81 l-74 75 -1115 -1114z"/>
<path d="M2666 3152 l-226 -226 77 -78 77 -77 223 222 c123 122 223 224 223
227 0 3 -33 39 -74 81 l-74 77 -226 -226z"/>
<path d="M1707 2194 c-273 -273 -497 -500 -497 -504 0 -9 139 -150 148 -150 4
0 231 225 505 499 l499 499 -76 76 c-41 42 -77 76 -78 76 -2 0 -228 -223 -501
-496z"/>
<path d="M3130 2085 l-555 -555 78 -77 77 -78 554 555 555 555 -77 77 -78 77
-554 -554z"/>
</g>
</svg>
